<svg width="30" height="30" viewBox="0 0 30 30" fill="none" xmlns="http://www.w3.org/2000/svg">
<path d="M28.9102 1.44201L22.8166 0.0357891C22.1545 -0.116551 21.4748 0.229145 21.2053 0.850226L18.3929 7.41259C18.1468 7.9868 18.3108 8.66061 18.7972 9.05318L22.3479 11.9594C20.2385 16.4534 16.5531 20.1916 11.9653 22.342L9.05908 18.7913C8.66065 18.3049 7.9927 18.1409 7.41849 18.387L0.856123 21.1994C0.229182 21.4748 -0.116514 22.1545 0.0358269 22.8166L1.44205 28.9102C1.58853 29.543 2.15102 30 2.81311 30C17.8187 30 30.0001 17.8421 30.0001 2.81308C30.0001 2.15684 29.5489 1.58849 28.9102 1.44201Z" fill="#001E64"/>
</svg>
